<?xml version="1.0" standalone="no"?>
<!DOCTYPE svg PUBLIC "-//W3C//DTD SVG 20010904//EN"
 "http://www.w3.org/TR/2001/REC-SVG-20010904/DTD/svg10.dtd">
<svg version="1.0" xmlns="http://www.w3.org/2000/svg" color="#ffffff"
 viewBox="568 89 517 358"
 preserveAspectRatio="xMidYMid meet">

<g transform="translate(0.000000,541.000000) scale(0.100000,-0.100000)"
fill="currentColor" stroke="none">
<path d="M9887 4240 c-61 -39 -139 -111 -182 -169 -33 -45 -34 -46 -137 -69
-132 -29 -165 -39 -263 -78 -131 -52 -175 -74 -280 -143 -168 -109 -366 -321
-438 -468 -12 -24 -26 -43 -31 -43 -6 1 -22 24 -36 53 -50 105 -145 233 -250
337 -266 267 -594 405 -960 403 -225 -1 -428 -49 -609 -144 -337 -178 -571
-454 -694 -819 -40 -119 -52 -174 -67 -312 -14 -131 -13 -200 5 -352 43 -366
231 -702 530 -946 241 -196 534 -300 849 -300 278 0 506 69 751 229 66 43 315
279 315 299 0 5 -27 74 -61 153 -33 79 -76 185 -95 234 -50 130 -38 120 -140
120 l-89 0 -5 -166 -5 -166 -35 -40 c-123 -139 -335 -240 -555 -265 -229 -26
-490 58 -686 220 -481 399 -527 1102 -101 1553 124 132 288 231 472 285 53 15
96 19 230 18 152 -1 172 -3 250 -29 100 -32 205 -83 275 -133 84 -60 204 -183
265 -273 l58 -86 109 -7 c207 -13 343 -69 505 -208 31 -26 58 -48 61 -48 2 0
9 26 16 58 17 76 75 230 121 322 149 294 418 506 710 557 47 8 95 17 107 19
16 3 32 24 55 71 18 37 38 69 44 71 6 1 14 -16 18 -40 11 -65 38 -117 95 -182
28 -33 77 -101 108 -150 59 -95 193 -290 250 -364 38 -50 43 -97 15 -132 -29
-36 -81 -30 -155 18 -107 71 -136 79 -349 107 -26 3 -59 16 -74 27 -31 25 -63
91 -64 131 0 70 -103 114 -151 66 -20 -20 -21 -28 -15 -123 11 -157 12 -152
-48 -230 -50 -66 -68 -99 -127 -231 -35 -81 -118 -272 -160 -375 -22 -52 -46
-108 -54 -125 -7 -16 -34 -79 -60 -140 -26 -60 -51 -114 -55 -118 -4 -4 -30
50 -58 120 -109 275 -162 397 -201 462 -78 132 -240 251 -395 291 -71 18 -111
20 -401 20 l-322 0 -6 41 c-7 57 -53 126 -108 164 -28 19 -85 42 -145 59 -55
15 -121 39 -149 52 -65 33 -142 108 -167 163 -17 36 -22 41 -30 28 -22 -41
-21 -115 3 -183 35 -99 108 -175 217 -225 45 -21 99 -51 119 -66 l37 -28 -110
-6 c-60 -3 -137 -12 -171 -19 -57 -12 -68 -12 -140 9 -135 39 -229 116 -283
234 -18 37 -35 67 -40 67 -4 0 -13 -30 -19 -66 -14 -77 -1 -163 35 -234 38
-76 131 -151 225 -183 25 -9 45 -22 47 -32 4 -20 -102 -230 -200 -397 -87
-147 -102 -191 -96 -272 8 -100 69 -189 161 -238 64 -34 175 -32 291 6 185 60
336 13 393 -121 15 -37 26 -39 97 -18 81 25 96 38 89 82 -19 139 -129 237
-306 275 -79 16 -238 4 -340 -27 -98 -29 -142 -24 -172 18 -22 32 -18 60 17
119 69 116 154 269 214 386 35 68 68 130 74 137 7 8 32 24 57 36 44 21 50 22
528 20 533 -1 534 -2 651 -66 63 -35 133 -103 172 -167 22 -35 115 -251 152
-353 10 -27 39 -99 65 -160 25 -60 69 -164 97 -230 53 -125 75 -155 113 -155
40 0 57 30 171 297 41 96 74 177 74 178 0 2 13 32 29 67 16 35 79 179 140 321
61 142 120 279 132 305 73 168 102 199 195 208 96 9 197 -16 295 -74 147 -87
236 -99 339 -47 86 44 142 126 155 231 11 81 -13 142 -107 276 -46 64 -120
174 -166 245 -45 70 -109 164 -142 207 -70 93 -71 100 -35 237 27 103 31 139
14 139 -5 0 -40 -16 -78 -35 -89 -46 -99 -46 -103 8 -4 54 -26 59 -91 17z
m-374 -356 c3 -4 -25 -22 -64 -40 -239 -115 -415 -298 -542 -564 -25 -52 -60
-137 -78 -188 l-32 -93 -26 24 c-14 13 -40 34 -58 46 l-31 21 23 61 c31 78
115 235 168 313 52 78 195 220 272 273 89 60 198 112 279 133 83 22 81 22 89
14z m-1908 -47 c256 -72 500 -245 657 -467 42 -60 98 -154 98 -165 0 -3 -33
-5 -73 -5 l-72 0 -64 90 c-149 211 -375 367 -616 426 -100 24 -286 29 -390 10
-224 -41 -393 -132 -560 -300 -117 -118 -180 -215 -241 -365 -117 -288 -112
-608 14 -896 39 -90 140 -241 215 -321 104 -112 284 -226 439 -279 75 -25 207
-45 303 -45 270 0 489 88 688 276 l57 54 0 156 0 155 41 -3 c45 -3 40 5 120
-201 l31 -78 -42 -54 c-56 -73 -183 -193 -258 -244 -184 -125 -357 -180 -582
-188 -224 -7 -358 21 -546 112 -247 120 -449 324 -574 580 -85 176 -122 335
-123 535 -2 306 89 573 277 807 155 192 331 315 562 392 132 44 179 50 374 46
150 -2 188 -7 265 -28z"/>
<path d="M9964 2833 c-20 -32 -60 -83 -89 -113 -98 -104 -109 -129 -113 -244
-3 -117 4 -136 43 -118 50 23 92 62 119 111 22 40 28 68 33 148 4 63 15 123
30 168 13 39 26 78 30 88 12 36 -17 15 -53 -40z"/>
<path d="M9703 2746 c-61 -68 -143 -270 -143 -349 0 -54 23 -132 55 -189 14
-24 25 -51 25 -60 0 -70 81 85 88 169 3 38 -3 75 -22 137 -33 107 -33 129 4
222 39 97 36 120 -7 70z"/>
<path d="M7487 2693 c-9 -8 -9 -290 -1 -332 l7 -31 349 0 c244 0 356 -3 371
-11 46 -25 50 -34 232 -474 129 -312 176 -402 244 -476 242 -263 645 -224 818
80 37 65 50 79 120 123 33 21 72 54 86 72 28 37 91 155 85 161 -6 6 -205 -53
-244 -73 -51 -26 -90 -70 -147 -162 -59 -96 -125 -163 -196 -197 -48 -24 -70
-28 -156 -30 l-100 -2 87 13 c107 16 184 53 249 118 80 80 160 232 158 301 -1
44 -62 250 -75 254 -22 7 -114 -227 -114 -291 0 -42 -54 -123 -99 -150 -40
-23 -125 -25 -166 -3 -65 33 -68 40 -232 442 -36 88 -73 180 -83 205 -52 137
-100 241 -131 287 -57 83 -168 152 -279 173 -58 11 -773 14 -783 3z m816 -82
c71 -25 136 -69 181 -124 30 -36 87 -162 182 -402 9 -22 31 -74 49 -115 18
-41 56 -134 84 -206 58 -147 83 -186 142 -226 50 -33 94 -43 162 -35 l52 6
-25 -19 c-85 -67 -230 -44 -327 50 -50 49 -77 102 -207 420 -167 405 -203 461
-335 524 l-66 31 -322 3 -323 3 0 55 0 54 348 0 c319 0 354 -2 405 -19z"/>
<path d="M10078 2563 c-9 -10 -27 -41 -41 -69 -42 -82 -74 -114 -162 -154 -95
-44 -136 -86 -161 -165 -10 -30 -16 -57 -13 -59 8 -8 165 31 204 52 54 28 98
97 146 225 36 97 58 187 47 187 -3 0 -12 -8 -20 -17z"/>
<path d="M9468 2263 c-29 -62 -32 -77 -32 -173 -1 -104 0 -106 42 -189 l42
-84 37 79 c49 106 51 185 6 289 -16 39 -33 87 -37 108 -4 20 -11 37 -17 37 -5
0 -24 -30 -41 -67z"/>
<path d="M9898 2105 c-3 -3 -41 -16 -85 -29 -116 -33 -189 -90 -232 -181 -32
-69 -35 -85 -14 -85 30 0 182 39 212 54 58 31 125 126 155 224 6 17 3 22 -12
22 -10 0 -21 -2 -24 -5z"/>
</g>
</svg>
